<svg xmlns="http://www.w3.org/2000/svg" width="1180" height="191" fill="none"><path fill="red" d="M128.107 190.707c-.489 0-.953-.348-.983-.976-.71-14.216-1.418-28.433-2.126-42.65l-26.296-20.418H58.728l-.16-.016-.04-.004-.039-.007c-.337-.045-.637-.264-.73-.71l-3.063-14.954H33.283a.927.927 0 0 1-.694-.283l-.015-.011L3.589 83.142a.857.857 0 0 1-.353-.54l-.017-.286L.045 48.281a.793.793 0 0 1 .144-.784.779.779 0 0 1 .43-.373c2.528-2.063 5.056-4.125 7.582-6.188L54.692 3.001l.281-.263a.775.775 0 0 1 .46-.145c.059 0 .122.007.186.019l10.309-.383c20.017-.743 40.032-1.485 60.049-2.23l.053.005.046.002a.91.91 0 0 1 .462.142.752.752 0 0 1 .427.556l1.804 3.02 31.554 2.36a.92.92 0 0 1 .449.056l.069.026c.16.048.308.124.423.23l28.83 26.524c.163.078.295.21.373.373a.84.84 0 0 1 .162.406l5.949 15.585 10.016 11.16c.136.153.228.34.268.542l.025.167 3.172 38.343.029.25-.007.18c-.008.269-.11.474-.272.612L196.58 122.97a1.045 1.045 0 0 1-.869.503.834.834 0 0 1-.264-.043l-8.113-2.732-1.916 9.816c.044.241-.023.496-.248.717l-.011.011-.108.112-.133.093-32.618 26.269-.085.107-23.224 32.415a1.085 1.085 0 0 1-.884.469Zm-1.053-42.608c.644 12.906 1.287 25.814 1.929 38.721L150 157.485l-22.946-9.386Zm52.964-15.265-50.942 13.939 22.303 9.124 28.639-23.063Zm-17.106-17.713c-13.468 3.749-26.934 7.5-40.4 11.25l4.09 18.41 36.31-29.66Zm4.242-.891a488382.158 488382.158 0 0 1-36.892 30.138c17.408-4.762 34.814-9.526 52.221-14.289l-15.329-15.849Zm-65.209 12.433 22.453 17.433-3.874-17.433h-18.579Zm68.877-11.525 12.947 13.385 1.653-8.469-14.6-4.916Zm-114.014-3.829 2.736 13.348h53.255l-55.991-13.348Zm43.748-29.36L58.02 109.536c1.806.429 3.612.86 5.418 1.291l56.144 13.385-19.026-42.265Zm1.999-.42c6.352 14.108 12.702 28.219 19.054 42.328l36.748-40.56-55.802-1.769Zm57.437 2.947-35.595 39.287 41.66-11.601-6.065-27.686Zm46.902 17.056-36.41 11.378 24.779 8.344 11.631-19.722Zm-26.398-15.59-11.432 25.311 37.41-11.69-25.978-13.62Zm12.261-32.02L161.656 82.71l5.915 27.004 2.561-5.672 8.896-19.695a.932.932 0 0 1 .146-.49l13.583-29.935ZM10.347 86.798l23.336 22.168h17.852L10.348 86.798ZM98.86 43.355 46.64 52.377l.09.527 9.342 54.426 11.164-16.691c10.54-15.763 21.082-31.523 31.623-47.284Zm-95.45 5.911 13.885 15.772 36.637 41.62-9.296-54.16-41.226-3.232Zm96.575-3.991c-3.573 5.343-7.148 10.686-10.72 16.03C79.19 76.363 69.12 91.42 59.048 106.48l40.935-26.55V45.275ZM2.31 51.044l2.86 30.69.554.298 45.35 24.41c-3.94-4.478-7.883-8.957-11.826-13.435L2.309 51.044Zm202.746 12.2-23.296 20.94c8.726 4.624 17.451 9.248 26.174 13.873-.958-11.605-1.918-23.209-2.878-34.812ZM101.989 43.864v32.296c0 .647.216 2.115.15 3.35l2.654.085 52.34 1.658-7.019-4.758-48.125-32.631Zm94.003 7.765-3.171 7.024c-3.27 7.237-6.538 14.474-9.806 21.71l21.456-19.285-8.479-9.45Zm-8.234-16.647-38.975 2.958.393 1.358.09.314A573614.503 573614.503 0 0 0 160.88 79.87c8.96-14.963 17.92-29.925 26.878-44.889Zm-62.125-4.949L102.925 42.08l8.504 5.765 45.624 30.935-31.42-48.748Zm63.782 6.088-24.403 40.754 3.757-3.479c8.591-7.95 17.181-15.902 25.77-23.854l-5.124-13.42Zm-60.932-5.365.82 1.273L157.7 76.084l-11.049-38.3a104333 104333 0 0 1-18.168-7.03ZM53.955 6.177a18390.53 18390.53 0 0 1-5.615 4.581L3.59 47.275l41.097 3.222 9.268-44.32Zm2.194-.715L46.77 50.33c17.31-2.992 34.622-5.982 51.935-8.973L56.15 5.462Zm4.224.95 40.739 34.361L123.5 28.895l-11.76-4.188L60.373 6.412ZM160.905 8.79l-11.849 27.122 38.182-2.896c-8.777-8.076-17.554-16.151-26.333-24.226Zm-34.261-4.713-2.499 22.86c2.868 1.109 5.736 2.218 8.604 3.329 4.122 1.594 8.245 3.189 12.367 4.785l.014.004c-6.163-10.325-12.324-20.652-18.486-30.978Zm3.378 1.748 17.324 29.028 11.731-26.855c-9.685-.725-19.37-1.45-29.055-2.173Zm-5.162-3.777a750168.819 750168.819 0 0 0-64.082 2.379c20.48 7.265 40.96 14.532 61.439 21.8l2.643-24.18ZM263 131.548V37.53h29.157c9.939 0 17.723 2.516 23.352 7.548 5.717 5.032 8.575 11.873 8.575 20.525 0 4.502-1.011 8.475-3.034 11.918-1.935 3.442-4.53 6.135-7.784 8.077-3.167 1.942-6.553 3.046-10.159 3.31l-.528-1.588c6.509.265 11.346 1.765 14.513 4.502 3.254 2.648 5.145 6.974 5.673 12.977l2.375 26.749h-13.853l-2.111-24.101c-.264-3.089-.924-5.561-1.979-7.415-1.055-1.854-2.683-3.178-4.881-3.973-2.199-.794-5.234-1.191-9.104-1.191h-16.359v36.68H263Zm13.853-49.658h15.04c5.805 0 10.247-1.368 13.325-4.105 3.078-2.736 4.618-6.576 4.618-11.52 0-5.032-1.54-8.872-4.618-11.52-3.078-2.737-7.52-4.106-13.325-4.106h-15.04V81.89ZM357.543 133.137c-6.772 0-12.181-2.295-16.227-6.886-4.046-4.679-6.069-11.211-6.069-19.598V61.1h13.325v42.11c0 6.356 1.099 10.991 3.298 13.904 2.199 2.913 5.541 4.37 10.027 4.37 4.837 0 8.707-1.633 11.61-4.9 2.99-3.266 4.486-7.901 4.486-13.904V61.1h13.325v70.448h-12.534l-.132-18.406 1.847.794c-1.231 6.091-3.826 10.814-7.784 14.169-3.958 3.355-9.015 5.032-15.172 5.032ZM439.025 133.137c-4.925 0-9.235-1.104-12.929-3.311-3.694-2.295-6.553-5.34-8.576-9.137l-.395 10.859h-12.402V37.53h13.325v33.502c1.759-3.09 4.442-5.782 8.048-8.078 3.694-2.295 8.004-3.443 12.929-3.443 5.981 0 11.17 1.501 15.568 4.503 4.398 2.913 7.784 7.15 10.159 12.712 2.375 5.473 3.562 12.006 3.562 19.598 0 7.592-1.187 14.169-3.562 19.731-2.375 5.473-5.761 9.711-10.159 12.712-4.398 2.913-9.587 4.37-15.568 4.37Zm-2.243-12.315c5.541 0 9.851-2.163 12.93-6.489 3.078-4.414 4.617-10.417 4.617-18.009 0-7.68-1.539-13.683-4.617-18.009-3.079-4.326-7.301-6.489-12.666-6.489-3.958 0-7.344.972-10.158 2.914-2.815 1.942-5.014 4.723-6.597 8.342-1.495 3.62-2.243 8.034-2.243 13.242 0 5.032.748 9.402 2.243 13.11 1.583 3.619 3.738 6.444 6.465 8.475 2.814 1.942 6.156 2.913 10.026 2.913ZM480.928 151.411v-11.256h8.575c2.463 0 4.266-.397 5.41-1.192 1.231-.706 2.154-1.898 2.77-3.575l2.375-6.224h-4.486l-25.595-68.063h14.381l19.922 55.483L522.882 61.1h14.249l-27.97 78.393c-1.407 4.238-3.606 7.283-6.596 9.137-2.903 1.854-6.817 2.781-11.742 2.781h-9.895ZM553.263 131.548v-17.48h17.942v17.48h-17.942Zm0-50.187V63.88h17.942v17.48h-17.942ZM591.031 131.548v-17.48h17.943v17.48h-17.943Zm0-50.187V63.88h17.943v17.48h-17.943ZM652.9 131.548V50.639h-27.442V37.53h68.604v13.11H666.62v80.909H652.9ZM702.322 131.548V37.53h13.325V76.46l-1.319-.53c.879-3.796 2.375-6.885 4.486-9.269 2.111-2.472 4.661-4.282 7.652-5.43 2.99-1.147 6.288-1.72 9.895-1.72 4.925 0 9.059 1.147 12.401 3.442 3.43 2.207 5.981 5.341 7.652 9.402 1.759 3.973 2.639 8.563 2.639 13.772v45.42h-13.325V89.571c0-6.356-1.144-10.991-3.431-13.904-2.198-3.002-5.497-4.503-9.894-4.503-5.014 0-9.06 1.59-12.138 4.767-3.079 3.179-4.618 7.857-4.618 14.037v41.58h-13.325ZM797.393 131.548V61.1h13.457v70.448h-13.457Zm-27.442 0v-11.256h64.383v11.256h-64.383Zm1.32-59.192V61.101h38.392v11.255h-38.392Zm25.331-21.452V37h13.72v13.904h-13.72ZM840.351 131.548V61.1h12.27l.396 18.407-1.452-1.06c.88-4.325 2.419-7.856 4.618-10.593 2.287-2.825 5.057-4.9 8.312-6.224 3.254-1.412 6.728-2.119 10.422-2.119 5.277 0 9.631 1.192 13.061 3.576 3.431 2.295 6.025 5.473 7.784 9.534 1.759 3.973 2.639 8.475 2.639 13.507v45.42h-13.325V89.571c0-6.091-1.187-10.682-3.562-13.772-2.287-3.09-5.761-4.635-10.423-4.635-3.254 0-6.201.707-8.839 2.12-2.551 1.412-4.618 3.53-6.201 6.355-1.583 2.737-2.375 6.136-2.375 10.197v41.712h-13.325ZM910.223 131.548V37.53h13.325v59.059L955.212 61.1h17.019l-27.442 29.927 28.629 40.521h-15.699l-21.769-31.516-12.402 13.11v18.406h-13.325ZM1007.01 131.548V61.1h13.46v70.448h-13.46Zm-27.442 0v-11.256h64.382v11.256h-64.382Zm1.319-59.192V61.101h38.393v11.255h-38.393Zm25.333-21.452V37h13.72v13.904h-13.72ZM1049.97 131.548V61.1h12.27l.39 18.407-1.45-1.06c.88-4.325 2.42-7.856 4.62-10.593 2.29-2.825 5.06-4.9 8.31-6.224 3.26-1.412 6.73-2.119 10.42-2.119 5.28 0 9.63 1.192 13.06 3.576 3.43 2.295 6.03 5.473 7.79 9.534 1.76 3.973 2.64 8.475 2.64 13.507v45.42h-13.33V89.571c0-6.091-1.19-10.682-3.56-13.772-2.29-3.09-5.76-4.635-10.42-4.635-3.26 0-6.2.707-8.84 2.12-2.55 1.412-4.62 3.53-6.2 6.355-1.59 2.737-2.38 6.136-2.38 10.197v41.712h-13.32ZM1148.47 153c-5.28 0-9.98-.839-14.12-2.516-4.13-1.677-7.56-4.061-10.29-7.151-2.64-3.089-4.48-6.665-5.54-10.726l13.98-.927c.97 2.914 2.69 5.209 5.15 6.886 2.46 1.678 6.07 2.516 10.82 2.516 5.89 0 10.38-1.236 13.46-3.708 3.16-2.471 4.74-6.135 4.74-10.99v-10.329c-1.67 3.619-4.3 6.488-7.91 8.607-3.52 2.119-7.61 3.178-12.27 3.178-5.81 0-10.99-1.456-15.57-4.37-4.57-2.913-8.13-6.886-10.68-11.917-2.56-5.121-3.83-10.991-3.83-17.612 0-6.886 1.23-12.89 3.69-18.01 2.55-5.12 6.07-9.136 10.56-12.05 4.48-2.913 9.58-4.37 15.3-4.37 4.93 0 9.24 1.148 12.93 3.443 3.78 2.207 6.51 5.253 8.18 9.137l.13-10.99h12.8v64.356c0 5.914-1.28 10.902-3.83 14.963-2.55 4.149-6.2 7.283-10.95 9.402-4.66 2.119-10.24 3.178-16.75 3.178Zm-.13-37.078c5.45 0 9.85-1.942 13.19-5.826 3.34-3.884 5.06-9.314 5.14-16.288.09-4.767-.65-8.784-2.24-12.05-1.49-3.355-3.65-5.915-6.46-7.68-2.73-1.766-5.94-2.649-9.63-2.649-5.72 0-10.16 1.986-13.33 5.96-3.08 3.883-4.62 9.357-4.62 16.42 0 6.973 1.59 12.403 4.75 16.287 3.26 3.884 7.66 5.826 13.2 5.826Z"/></svg>